<?xml version="1.0" encoding="UTF-8"?>
<svg id="_圖層_1" data-name="圖層 1" xmlns="http://www.w3.org/2000/svg" version="1.1" viewBox="0 0 60 60">
  <defs>
    <style>
      .cls-1 {
        fill: #022e61;
        stroke-width: 0px;
      }
    </style>
  </defs>
  <path class="cls-1" d="M51.5,8.8h-.7c1.3-2.2.8-5-1.3-6.6-2.3-1.7-5.5-1.2-7.1,1.2l-3.6,5.4H7.9c-2.5,0-4.6,2.1-4.6,4.6v29.5c0,2.5,2.1,4.6,4.6,4.6h17.9l-1.4,5.7h-2.9c-1.9,0-3.5,1.5-3.5,3.5v.7h-3.6c-.6,0-1.1.5-1.1,1.1s.5,1.1,1.1,1.1h30.5c.6,0,1.1-.5,1.1-1.1s-.5-1.1-1.1-1.1h-3.6v-.7c0-1.9-1.5-3.5-3.5-3.5h-2.9l-1.4-5.7h17.9c2.5,0,4.6-2.1,4.6-4.6V13.4c0-2.5-2.1-4.6-4.6-4.6h0ZM35.2,28.8c-1.8,1.3-5.1-.4-8.3,1.3-.8-4-.3-7.9,3.8-8.7.5-.1,1.1-.2,1.6-.1,1.4,1,2.8,2,4.1,3.1.6,1.7.4,3.5-1.1,4.5h0ZM36.3,16.6l3.2,2.4-2.5,3c-1-.8-1.9-1.4-2.9-2.2.2-.3,2-3,2.2-3.3ZM44.3,4.6c.9-1.3,2.6-1.6,3.9-.7,1.2.9,1.5,2.7.5,3.9-1.8,2.1-5.9,7.2-7.7,9.4l-3.4-2.5,6.7-10.1ZM39.1,56.6v.7h-18.7v-.7c0-.6.5-1.2,1.2-1.2h16.4c.6,0,1.2.5,1.2,1.2h0ZM32.6,53.2h-5.8l1.4-5.7h3.1l1.4,5.7ZM53.9,42.9c0,1.3-1,2.3-2.3,2.3H7.9c-1.3,0-2.3-1-2.3-2.3v-5.3h3.3c.6,0,1.1-.5,1.1-1.1s-.5-1.1-1.1-1.1h-3.3V13.4c0-1.3,1-2.3,2.3-2.3h29.4c-1.1,1.6-4.3,6.4-5.3,7.9-2.2,0-4.5.8-5.9,2.5-2,2.3-2.3,6-1,10.9.2.8,1.3,1.1,1.9.5,3-2.8,6.6.3,9.9-2.4,2-1.6,2.5-4.2,1.7-6.6,1-1.2,9.4-11.5,10.5-12.8h2.5c1.3,0,2.3,1,2.3,2.3v21.9H17.9c-.6,0-1.1.5-1.1,1.1s.5,1.1,1.1,1.1h35.9v5.3Z"/>
  <path class="cls-1" d="M13.2,35.3c-.5.1-.9.6-.9,1.1s.7,1.3,1.4,1.1c.6-.1,1-.7.9-1.3-.1-.6-.7-1-1.3-.9h0Z"/>
</svg>