<?xml version="1.0" encoding="UTF-8"?>
<svg id="_圖層_1" data-name="圖層 1" xmlns="http://www.w3.org/2000/svg" version="1.1" viewBox="0 0 60 60">
  <defs>
    <style>
      .cls-1 {
        fill: #022e61;
        stroke-width: 0px;
      }
    </style>
  </defs>
  <path class="cls-1" d="M30.5,46.7c-4.6,0-8.4-3.8-8.4-8.4s3.8-8.4,8.4-8.4,8.4,3.8,8.4,8.4-3.8,8.4-8.4,8.4ZM30.5,32.6c-3.2,0-5.8,2.6-5.8,5.8s2.6,5.8,5.8,5.8,5.8-2.6,5.8-5.8-2.6-5.8-5.8-5.8Z"/>
  <path class="cls-1" d="M39.3,59.1h-17.7c-.7,0-1.3-.6-1.3-1.3v-3.5c0-5.6,4.6-10.2,10.2-10.2s10.2,4.6,10.2,10.2v3.5c0,.7-.6,1.3-1.3,1.3ZM22.9,56.5h15.1v-2.2c0-4.2-3.4-7.5-7.5-7.5s-7.5,3.4-7.5,7.5v2.2Z"/>
  <path class="cls-1" d="M41.1,43.2c-1.7,0-3.3-.5-4.7-1.4-.6-.4-.8-1.2-.4-1.8.4-.6,1.2-.8,1.8-.4,1,.6,2.1,1,3.2,1,3.2,0,5.8-2.6,5.8-5.8s-2.6-5.8-5.8-5.8-4.6,1.5-5.4,3.9c-.2.7-1,1.1-1.7.8-.7-.2-1.1-1-.8-1.7,1.2-3.4,4.4-5.6,7.9-5.6s8.4,3.8,8.4,8.4-3.8,8.4-8.4,8.4Z"/>
  <path class="cls-1" d="M49.9,55.6h-10.6c-.7,0-1.3-.6-1.3-1.3s.6-1.3,1.3-1.3h9.3v-2.2c0-2-.8-3.9-2.2-5.3-1.4-1.4-3.3-2.2-5.3-2.2s-5,1.3-6.4,3.5c-.4.6-1.2.8-1.8.4-.6-.4-.8-1.2-.4-1.8,1.9-3,5.1-4.7,8.6-4.7s5.3,1.1,7.2,3c1.9,1.9,3,4.5,3,7.2v3.5c0,.7-.6,1.3-1.3,1.3h0Z"/>
  <path class="cls-1" d="M19.8,43.2c-4.6,0-8.4-3.8-8.4-8.4s3.8-8.4,8.4-8.4,6.8,2.3,7.9,5.6c.2.7-.1,1.5-.8,1.7-.7.2-1.4-.1-1.7-.8-.8-2.3-3-3.9-5.4-3.9s-5.8,2.6-5.8,5.8,2.6,5.8,5.8,5.8,2.3-.3,3.2-1c.6-.4,1.4-.2,1.8.4.4.6.2,1.4-.4,1.8-1.4.9-3,1.4-4.7,1.4Z"/>
  <path class="cls-1" d="M21.6,55.6h-10.6c-.7,0-1.3-.6-1.3-1.3v-3.5c0-2.7,1.1-5.3,3-7.2,1.9-1.9,4.5-3,7.2-3s6.7,1.8,8.6,4.7c.4.6.2,1.4-.4,1.8-.6.4-1.4.2-1.8-.4-1.4-2.2-3.8-3.5-6.4-3.5s-3.9.8-5.3,2.2c-1.4,1.4-2.2,3.3-2.2,5.3v2.2h9.3c.7,0,1.3.6,1.3,1.3s-.6,1.3-1.3,1.3h0Z"/>
  <g>
    <path class="cls-1" d="M35.9,24.4c-.4,0-.7,0-1-.3l-4.4-2.3-4.4,2.3c-.8.4-1.6.3-2.3-.2-.7-.5-1-1.3-.9-2.2l.8-4.9-3.5-3.4c-.6-.6-.8-1.5-.6-2.3s.9-1.4,1.8-1.5l4.9-.7,2.2-4.4c.4-.8,1.1-1.2,2-1.2s1.6.5,2,1.2l2.2,4.4,4.9.7c.8.1,1.5.7,1.8,1.5s0,1.7-.6,2.3l-3.5,3.4.8,4.9c.1.8-.2,1.7-.9,2.2-.4.3-.8.4-1.3.4ZM22.7,12.2l3.1,3c.5.5.8,1.2.6,2l-.7,4.2,3.8-2c.6-.3,1.4-.3,2.1,0l3.8,2-.7-4.2c-.1-.7.1-1.5.6-2l3.1-3-4.2-.6c-.7-.1-1.3-.6-1.7-1.2l-1.9-3.8-1.9,3.8c-.3.7-.9,1.1-1.7,1.2l-4.2.6h0ZM30,20.5h0,0ZM23.9,17.1s0,0,0,0h0ZM37,17.1h0s0,0,0,0ZM23.8,16.7h0s0,0,0,0ZM37.2,16.7h0s0,0,0,0Z"/>
    <path class="cls-1" d="M49.9,13.7h-3.5c-.7,0-1.3-.6-1.3-1.3s.6-1.3,1.3-1.3h3.5c.7,0,1.3.6,1.3,1.3s-.6,1.3-1.3,1.3Z"/>
    <path class="cls-1" d="M45,7.5c-.5,0-1-.3-1.2-.7-.3-.7,0-1.5.6-1.8l3.2-1.6c.7-.3,1.5,0,1.8.6.3.7,0,1.5-.6,1.8l-3.2,1.6c-.2,0-.4.1-.6.1Z"/>
    <path class="cls-1" d="M48.1,21.5c-.2,0-.4,0-.6-.1l-3.2-1.6c-.7-.3-.9-1.1-.6-1.8s1.1-.9,1.8-.6l3.2,1.6c.7.3.9,1.1.6,1.8-.2.5-.7.7-1.2.7Z"/>
    <path class="cls-1" d="M14.5,13.7h-3.5c-.7,0-1.3-.6-1.3-1.3s.6-1.3,1.3-1.3h3.5c.7,0,1.3.6,1.3,1.3s-.6,1.3-1.3,1.3Z"/>
    <path class="cls-1" d="M15.9,7.5c-.2,0-.4,0-.6-.1l-3.2-1.6c-.7-.3-.9-1.1-.6-1.8s1.1-.9,1.8-.6l3.2,1.6c.7.3.9,1.1.6,1.8-.2.5-.7.7-1.2.7Z"/>
    <path class="cls-1" d="M12.8,21.5c-.5,0-1-.3-1.2-.7-.3-.7,0-1.5.6-1.8l3.2-1.6c.7-.3,1.5,0,1.8.6.3.7,0,1.5-.6,1.8l-3.2,1.6c-.2,0-.4.1-.6.1Z"/>
  </g>
</svg>