<?xml version="1.0" encoding="UTF-8"?>
<svg id="_圖層_1" data-name="圖層 1" xmlns="http://www.w3.org/2000/svg" version="1.1" viewBox="0 0 60 60">
  <defs>
    <style>
      .cls-1 {
        fill: #022e61;
        stroke-width: 0px;
      }
    </style>
  </defs>
  <path class="cls-1" d="M58,26.8l-9.4-12.2c-.3-.5-1-.6-1.5-.3l-6.1,3.9h-7.9c-.1,0-.2,0-.3,0l-6.1,1.8-6.4-1.7-6.2-3.9c-.5-.3-1.1-.2-1.4.2L2.4,27.4c-.4.5-.3,1.1.1,1.5l5.4,4.7,4.9,6.6c-1.4,1.5-1.4,3.9,0,5.4.7.7,1.5,1,2.4,1.1,0,.2,0,.4,0,.6,0,1,.4,2,1.1,2.7s1.7,1.1,2.7,1.1,0,0,0,0c0,0,0,0,0,0,0,1,.4,2,1.1,2.7.7.7,1.7,1.1,2.7,1.1s.4,0,.6,0c0,.9.5,1.7,1.1,2.4.8.8,1.8,1.1,2.7,1.1s2-.4,2.7-1.1l.6-.6.2.2c.8.7,1.7,1.1,2.7,1.1s2-.4,2.7-1.1c.8-.8,1.2-1.8,1.1-2.8,1,0,2-.4,2.8-1.1.8-.8,1.1-1.8,1.1-2.8,1.1,0,2.1-.4,2.8-1.1s1.2-1.8,1.1-2.8c1,0,2-.4,2.8-1.1,1.3-1.3,1.5-3.4.5-4.9l3.6-7.5,5.4-4.6c.4-.4.5-1,.2-1.5ZM13.9,16.7l4.4,2.8-9.7,11.8-3.9-3.3,9.1-11.3ZM14.5,41.6l1.3-1.3s0,0,.1-.1c.3-.2.6-.3.9-.4,0,0,0,0,0,0,0,0,0,0,.1,0,.5,0,.9.2,1.2.5.6.7.6,1.7,0,2.4l-1.3,1.3c-.7.7-1.7.7-2.4,0-.7-.7-.7-1.7,0-2.4ZM18,48.5c-.3-.3-.5-.7-.5-1.2s.2-.9.5-1.2l2.6-2.6c.5-.5,1.3-.6,1.9-.3.7.3,1,1,.9,1.7,0,.4-.2.7-.5,1l-2.6,2.6c-.3.3-.7.5-1.2.5s-.9-.2-1.2-.5ZM21.9,52.4c-.3-.3-.5-.7-.5-1.2s.2-.9.5-1.2l2.6-2.6c.5-.5,1.4-.6,2-.3.6.3.9,1,.8,1.7,0,.4-.2.7-.5,1l-2.6,2.6c-.3.3-.7.5-1.2.5s-.9-.2-1.2-.5ZM26.4,55.9c-.7-.7-.7-1.7,0-2.4l1.3-1.3s0,0,.1-.1c0,0,0,0,0,0,.2-.2.5-.3.7-.3h0s0,0,.1,0c0,0,0,0,0,0,0,0,0,0,.1,0,.5,0,.9.2,1.2.5,0,0,0,0,.1.1.5.7.4,1.6-.2,2.3l-1.3,1.3c-.7.7-1.7.7-2.4,0ZM46.9,43.6c-.7.7-1.7.7-2.4,0s0,0,0,0l-7.1-7.1c-.4-.4-1.1-.4-1.6,0-.4.4-.4,1.1,0,1.6l7.1,7.2h0c.7.7.7,1.7,0,2.4s-.7.5-1.2.5-.9-.2-1.2-.5l-4.8-4.8c-.4-.4-1.1-.4-1.6,0-.4.4-.4,1.1,0,1.6l4.7,4.8s0,0,0,0c.7.7.7,1.7,0,2.4-.7.7-1.7.7-2.4,0l-2.6-2.6c-.4-.4-1.1-.4-1.6,0-.4.4-.4,1.1,0,1.6l2.5,2.6s0,0,0,0c.7.7.7,1.7,0,2.4-.7.7-1.7.7-2.4,0s-.2-.1-.2-.2c0,0,0,0,0-.2,0,0,0-.2.1-.3,0,0,0-.2.1-.3.2-.5.2-1.1.1-1.7-.1-1.1-.7-2.1-1.6-2.7-.5-.3-1.1-.6-1.6-.6.3-1.2,0-2.6-.9-3.5-.7-.8-1.7-1.2-2.8-1.2,0,0,0,0-.1,0,0-1-.3-2-1-2.7-.7-.8-1.7-1.2-2.8-1.2-.3,0-.6,0-.9,0-.1-.9-.6-1.8-1.3-2.4-.7-.6-1.6-.9-2.5-.9-1,0-1.9.3-2.7,1l-4.2-5.7,10.2-12.4,3.2.9-4.2,7.5c-.5.9-.6,1.9-.4,2.9.3,1,.9,1.8,1.8,2.3,0,0,.1,0,.2,0,0,0,0,0,0,0,.2,0,.3.1.5.2.7.3,1.5.3,2.3,0,1-.3,1.8-.9,2.3-1.8l2.7-4.8,4.9.3,13.1,13.1c.7.7.7,1.7,0,2.4ZM47.3,38.6l-12.3-12.3s0,0,0,0c-.2-.1-.4-.2-.6-.3l-6-.4c-.4,0-.8.2-1,.6l-3.1,5.5c-.2.4-.6.7-1,.8-.4.1-.9,0-1.3-.2-.4-.2-.7-.6-.8-1s0-.9.2-1.3l4.1-7.3,1.7-.5s0,0,0,0l6.2-1.8h7.5l9.4,12-3,6.3ZM51.8,30.6l-8.7-11.1,4.4-2.8,8.1,10.6-3.9,3.3Z"/>
  <path class="cls-1" d="M36.1,16.1c.3,0,.6-.1.8-.3l7.5-7.5c.4-.4.4-1.1,0-1.6s-1.1-.4-1.6,0l-7.5,7.5c-.4.4-.4,1.1,0,1.6s.5.3.8.3Z"/>
  <path class="cls-1" d="M23.5,15.8c.2.2.5.3.8.3s.6-.1.8-.3c.4-.4.4-1.1,0-1.6l-7.5-7.5c-.4-.4-1.1-.4-1.6,0s-.4,1.1,0,1.6l7.5,7.5Z"/>
  <path class="cls-1" d="M30.2,16.1c.6,0,1.1-.5,1.1-1.1v-6.2c0-.6-.5-1.1-1.1-1.1s-1.1.5-1.1,1.1v6.2c0,.6.5,1.1,1.1,1.1Z"/>
  <path class="cls-1" d="M29.2,4.8c.2.4.6.7,1.1.7.5,0,.9-.3,1-.8.1-.4,0-.9-.4-1.2-.4-.3-.9-.3-1.3,0-.4.3-.6.9-.4,1.3Z"/>
</svg>