<?xml version="1.0" encoding="UTF-8"?>
<svg id="_圖層_1" data-name="圖層 1" xmlns="http://www.w3.org/2000/svg" version="1.1" viewBox="0 0 60 60">
  <defs>
    <style>
      .cls-1 {
        fill: #022e61;
        stroke-width: 0px;
      }
    </style>
  </defs>
  <path class="cls-1" d="M15.1,59.1c-.2-.2-.5-.3-.5-.5-.1-.3-.2-.8-.1-1.1.1-.4.5-.7,1-.7,1.1,0,2.3,0,3.4,0,.2,0,.4,0,.6,0v-3.9h-.7c-3.5,0-7,0-10.5,0-3.3,0-5.3-2-5.3-5.3,0-9.5,0-18.9,0-28.4,0-3.2,2.4-5.5,5.2-5.3.1,0,.3,0,.5,0,0-.2,0-.4,0-.6,0-3.4,0-6.7,0-10.1,0-1,.4-1.4,1.4-1.4,5.2,0,10.3,0,15.5,0,.5,0,.9.2,1.3.5,1.2,1.2,2.4,2.4,3.6,3.6.4.4.5.8.5,1.3,0,2,0,4.1,0,6.1,0,.2,0,.4,0,.7.3,0,.5,0,.8,0,6.8,0,13.7,0,20.5,0,2.5,0,4.3,1.4,4.9,3.7.1.4.2.9.2,1.3,0,2.6,0,5.1,0,7.7,0,.1,0,.3,0,.4,0,.6-.6,1.1-1.2,1-.6,0-1-.5-1-1.1,0-1.2,0-2.5,0-3.7,0-1.5,0-2.9,0-4.4,0-1.7-1.1-2.7-2.7-2.7-7,0-13.9,0-20.9,0-.1,0-.3,0-.5,0,0,.2,0,.5,0,.7,0,4,0,8,0,12,0,1.1-.4,1.5-1.5,1.5-6.4,0-12.9,0-19.3,0-1.1,0-1.5-.4-1.5-1.5,0-4,0-7.9,0-11.9v-.6c-1.9-.5-3.4.7-3.4,2.7,0,3.7,0,7.4,0,11.1,0,4.3,0,8.7,0,13v.7h49.9c0-.2,0-.4,0-.6,0-1.9,0-3.9,0-5.8,0-.2,0-.4,0-.6.2-.5.5-.7,1-.8.5,0,.9.2,1.1.7,0,.2.1.5.1.8,0,3.4,0,6.9,0,10.3,0,3.1-2,5.2-5.2,5.2-3.5,0-7.1,0-10.6,0h-.7v3.9c.8,0,1.5,0,2.3,0,.5,0,1.1,0,1.6,0,.7,0,1.1.3,1.2.8.2.5,0,.9-.6,1.3,0,0,0,0-.1.1H15.1ZM11,4v24h17.7V9.6c-1.4,0-2.8,0-4.2,0-1,0-1.4-.4-1.4-1.4,0-1.2,0-2.4,0-3.6,0-.2,0-.4,0-.5h-12.2ZM5.3,46c0,.6,0,1.1,0,1.7,0,2,1,3,3,3,14.6,0,29.2,0,43.9,0,.2,0,.3,0,.5,0,1.1,0,2.2-.8,2.4-1.9.2-.9.1-1.8.2-2.8H5.3ZM38.6,52.9h-16.7v3.9h16.7v-3.9ZM25.5,4.2v3.2h3.2c-1.1-1.1-2.1-2.1-3.2-3.2Z"/>
  <path class="cls-1" d="M42,36.7h2.6v-.7c0-4.2,0-8.4,0-12.6,0-1.2.3-1.6,1.6-1.6,1.5,0,2.9,0,4.4,0,.9,0,1.3.4,1.4,1.3,0,4.8,0,9.7,0,14.5,0,.9-.4,1.3-1.3,1.3-6.1,0-12.2,0-18.2,0-.8,0-1.3-.4-1.3-1.1,0-.7.5-1.1,1.3-1.1.8,0,1.6,0,2.4,0,0-.2,0-.4,0-.6,0-2.4,0-4.8,0-7.2,0-1.2.3-1.6,1.5-1.6,1.5,0,2.9,0,4.4,0,1,0,1.4.4,1.4,1.4,0,2.5,0,4.9,0,7.4,0,.2,0,.4,0,.6ZM49.5,36.7v-12.6h-2.7v12.6h2.7ZM37,29.5v7.1h2.7v-7.1h-2.7Z"/>
  <path class="cls-1" d="M14.6,37.8c0,.6-.5,1.1-1.1,1.1-.6,0-1.1-.5-1.1-1.1,0-.6.5-1.1,1.1-1.1.6,0,1.1.5,1.1,1.1Z"/>
  <path class="cls-1" d="M19.1,37.8c0,.6-.5,1.1-1.1,1.1-.6,0-1.1-.5-1.1-1.1,0-.6.5-1.1,1.1-1.1.6,0,1.1.5,1.1,1.1Z"/>
  <path class="cls-1" d="M23.5,37.8c0,.6-.5,1.1-1.1,1.1-.6,0-1.2-.5-1.1-1.1,0-.6.5-1.1,1.1-1.1.6,0,1.1.5,1.1,1.1Z"/>
  <path class="cls-1" d="M55.2,32c0-.6.5-1.1,1.1-1.1.6,0,1.1.5,1.1,1.1,0,.6-.5,1.1-1.1,1.1-.6,0-1.1-.5-1.1-1.1Z"/>
  <path class="cls-1" d="M19.9,16.2c1.7,0,3.5,0,5.2,0,1,0,1.4.4,1.4,1.4,0,2.2,0,4.4,0,6.5,0,1-.4,1.4-1.4,1.4-3.5,0-7,0-10.5,0-1,0-1.4-.4-1.4-1.4,0-2.2,0-4.4,0-6.6,0-1,.4-1.3,1.4-1.4,1.8,0,3.5,0,5.3,0ZM15.5,23.2h8.7v-4.8h-8.7v4.8Z"/>
  <path class="cls-1" d="M17.1,7.2c.9,0,1.7,0,2.6,0,.8,0,1.3.4,1.2,1.1,0,.7-.5,1.1-1.3,1.1-1.7,0-3.4,0-5.1,0-.8,0-1.3-.4-1.3-1.1,0-.7.5-1.1,1.3-1.1.9,0,1.7,0,2.6,0Z"/>
  <path class="cls-1" d="M17.1,11.7c.9,0,1.8,0,2.6,0,.7,0,1.2.4,1.2,1.1,0,.7-.5,1.1-1.2,1.1-1.8,0-3.5,0-5.3,0-.7,0-1.2-.5-1.2-1.1,0-.6.5-1.1,1.2-1.1.9,0,1.8,0,2.6,0Z"/>
</svg>